<svg width="1200" height="630" viewBox="0 0 1200 630" fill="none" xmlns="http://www.w3.org/2000/svg">
<rect width="1200" height="630" rx="20" fill="white"/>
<g filter="url(#filter0_d_21_55)">
<path d="M647.931 308.953V219.779C647.931 219.484 648.023 219.196 648.193 218.955C648.464 218.573 648.905 218.348 649.373 218.353L674.262 218.658C674.967 218.667 675.649 218.907 676.203 219.343C676.978 219.951 677.431 220.861 677.431 221.847C677.446 251.285 677.865 309.565 678.472 319.093C679.514 335.448 710.402 343.953 713.872 316.149V244.84C713.872 242.091 717.594 242.651 720.152 243.491C720.819 243.71 721.383 244.155 721.807 244.715L744.324 274.551C744.832 275.224 745.107 276.044 745.107 276.888V289.997C745.107 293.737 749.874 295.31 752.097 292.304L759.307 282.554C760.348 281.145 760.316 279.213 759.23 277.84L714.58 221.418C714.346 221.122 714.219 220.756 714.219 220.379C714.219 219.441 714.988 218.687 715.925 218.706L744.713 219.289C745.844 219.312 746.909 219.829 747.627 220.703L775.672 254.809C777.257 256.736 780.222 256.686 781.739 254.705L789.836 244.139C791.181 242.383 793.713 242.118 795.45 243.487C800.788 247.695 805.105 250.153 811.056 252.102C813.671 252.958 814.828 256.106 813.208 258.332L797.865 279.411C796.837 280.824 796.88 282.749 797.969 284.114L851.471 351.14C851.813 351.57 852 352.103 852 352.652C852 353.99 850.916 355.075 849.579 355.075H820.9C819.718 355.075 818.601 354.535 817.866 353.609L779.772 305.639C778.205 303.666 775.208 303.688 773.682 305.694C762.826 319.974 746.565 341.728 736.085 349.187C719.078 361.29 646.89 374.047 647.931 308.953Z" fill="#0E6FB6"/>
<path d="M852 219.697C852 233.889 840.012 245.393 825.224 245.393C810.435 245.393 798.447 233.889 798.447 219.697C798.447 205.505 810.435 194 825.224 194C840.012 194 852 205.505 852 219.697Z" fill="#FCBE00"/>
<path d="M348 341.35V250.872H383.908C389.419 250.872 394.327 251.992 398.633 254.232C403.024 256.387 406.425 259.489 408.836 263.539C411.334 267.502 412.582 272.285 412.582 277.886V279.566C412.582 285.167 411.291 289.993 408.707 294.043C406.21 298.093 402.809 301.195 398.503 303.349C394.198 305.503 389.333 306.58 383.908 306.58H361.95V341.35H348ZM361.95 293.913H382.487C387.395 293.913 391.313 292.621 394.241 290.036C397.169 287.451 398.633 283.918 398.633 279.437V278.144C398.633 273.577 397.169 270.001 394.241 267.416C391.313 264.831 387.395 263.539 382.487 263.539H361.95V293.913Z" fill="#080808"/>
<path d="M430.089 341.35V277.627H443.135V285.124H445.201C446.235 282.453 447.871 280.514 450.11 279.308C452.435 278.015 455.276 277.369 458.634 277.369H466.255V289.39H458.118C453.812 289.39 450.282 290.596 447.526 293.009C444.771 295.335 443.393 298.954 443.393 303.866V341.35H430.089Z" fill="#080808"/>
<path d="M511.481 343.159C505.109 343.159 499.426 341.867 494.431 339.282C489.523 336.61 485.648 332.819 482.806 327.907C479.965 322.996 478.544 317.179 478.544 310.458V308.519C478.544 301.798 479.965 296.025 482.806 291.199C485.648 286.287 489.523 282.496 494.431 279.825C499.426 277.153 505.109 275.818 511.481 275.818C517.853 275.818 523.536 277.153 528.531 279.825C533.525 282.496 537.443 286.287 540.285 291.199C543.126 296.025 544.547 301.798 544.547 308.519V310.458C544.547 317.179 543.126 322.996 540.285 327.907C537.443 332.819 533.525 336.61 528.531 339.282C523.536 341.867 517.853 343.159 511.481 343.159ZM511.481 331.268C517.336 331.268 522.072 329.415 525.689 325.71C529.392 321.918 531.243 316.705 531.243 310.07V308.907C531.243 302.272 529.435 297.102 525.818 293.396C522.202 289.605 517.422 287.709 511.481 287.709C505.712 287.709 500.976 289.605 497.273 293.396C493.656 297.102 491.848 302.272 491.848 308.907V310.07C491.848 316.705 493.656 321.918 497.273 325.71C500.976 329.415 505.712 331.268 511.481 331.268Z" fill="#080808"/>
<path d="M591.335 343.159C586.082 343.159 581.217 341.867 576.739 339.282C572.262 336.696 568.645 332.991 565.889 328.166C563.22 323.254 561.885 317.351 561.885 310.458V308.519C561.885 301.712 563.22 295.852 565.889 290.941C568.559 286.029 572.132 282.281 576.61 279.695C581.088 277.11 585.996 275.818 591.335 275.818C595.468 275.818 598.913 276.335 601.668 277.369C604.51 278.403 606.835 279.739 608.643 281.376C610.451 282.927 611.829 284.564 612.776 286.287H614.843V250.872H628.147V341.35H615.101V332.302H613.035C611.398 335.059 608.901 337.558 605.543 339.799C602.271 342.039 597.535 343.159 591.335 343.159ZM595.081 331.526C600.85 331.526 605.586 329.674 609.289 325.968C613.078 322.263 614.972 316.964 614.972 310.07V308.907C614.972 302.099 613.121 296.843 609.418 293.138C605.715 289.433 600.936 287.58 595.081 287.58C589.397 287.58 584.661 289.433 580.873 293.138C577.17 296.843 575.318 302.099 575.318 308.907V310.07C575.318 316.964 577.17 322.263 580.873 325.968C584.661 329.674 589.397 331.526 595.081 331.526Z" fill="#080808"/>
</g>
<g filter="url(#filter1_d_21_55)">
<path d="M126 424.5H176V374.5H126V424.5ZM1023.72 424.5H1073.72V374.5H1023.72V424.5Z" fill="black"/>
<path d="M212.644 421.6C209.944 421.6 207.427 421.167 205.094 420.3C202.794 419.4 200.794 418.133 199.094 416.5C197.394 414.867 196.061 412.95 195.094 410.75C194.161 408.55 193.694 406.133 193.694 403.5C193.694 400.867 194.161 398.45 195.094 396.25C196.061 394.05 197.394 392.133 199.094 390.5C200.827 388.867 202.844 387.617 205.144 386.75C207.444 385.85 209.961 385.4 212.694 385.4C215.727 385.4 218.461 385.933 220.894 387C223.361 388.033 225.427 389.567 227.094 391.6L221.894 396.4C220.694 395.033 219.361 394.017 217.894 393.35C216.427 392.65 214.827 392.3 213.094 392.3C211.461 392.3 209.961 392.567 208.594 393.1C207.227 393.633 206.044 394.4 205.044 395.4C204.044 396.4 203.261 397.583 202.694 398.95C202.161 400.317 201.894 401.833 201.894 403.5C201.894 405.167 202.161 406.683 202.694 408.05C203.261 409.417 204.044 410.6 205.044 411.6C206.044 412.6 207.227 413.367 208.594 413.9C209.961 414.433 211.461 414.7 213.094 414.7C214.827 414.7 216.427 414.367 217.894 413.7C219.361 413 220.694 411.95 221.894 410.55L227.094 415.35C225.427 417.383 223.361 418.933 220.894 420C218.461 421.067 215.711 421.6 212.644 421.6ZM245.386 421.4C242.52 421.4 239.97 420.8 237.736 419.6C235.536 418.4 233.786 416.767 232.486 414.7C231.22 412.6 230.586 410.217 230.586 407.55C230.586 404.85 231.22 402.467 232.486 400.4C233.786 398.3 235.536 396.667 237.736 395.5C239.97 394.3 242.52 393.7 245.386 393.7C248.22 393.7 250.753 394.3 252.986 395.5C255.22 396.667 256.97 398.283 258.236 400.35C259.503 402.417 260.136 404.817 260.136 407.55C260.136 410.217 259.503 412.6 258.236 414.7C256.97 416.767 255.22 418.4 252.986 419.6C250.753 420.8 248.22 421.4 245.386 421.4ZM245.386 415C246.686 415 247.853 414.7 248.886 414.1C249.92 413.5 250.736 412.65 251.336 411.55C251.936 410.417 252.236 409.083 252.236 407.55C252.236 405.983 251.936 404.65 251.336 403.55C250.736 402.45 249.92 401.6 248.886 401C247.853 400.4 246.686 400.1 245.386 400.1C244.086 400.1 242.92 400.4 241.886 401C240.853 401.6 240.02 402.45 239.386 403.55C238.786 404.65 238.486 405.983 238.486 407.55C238.486 409.083 238.786 410.417 239.386 411.55C240.02 412.65 240.853 413.5 241.886 414.1C242.92 414.7 244.086 415 245.386 415ZM301.3 393.7C303.433 393.7 305.317 394.133 306.95 395C308.617 395.833 309.917 397.133 310.85 398.9C311.817 400.633 312.3 402.867 312.3 405.6V421H304.5V406.8C304.5 404.633 304.05 403.033 303.15 402C302.25 400.967 300.983 400.45 299.35 400.45C298.217 400.45 297.2 400.717 296.3 401.25C295.4 401.75 294.7 402.517 294.2 403.55C293.7 404.583 293.45 405.9 293.45 407.5V421H285.65V406.8C285.65 404.633 285.2 403.033 284.3 402C283.433 400.967 282.183 400.45 280.55 400.45C279.417 400.45 278.4 400.717 277.5 401.25C276.6 401.75 275.9 402.517 275.4 403.55C274.9 404.583 274.65 405.9 274.65 407.5V421H266.85V394.1H274.3V401.45L272.9 399.3C273.833 397.467 275.15 396.083 276.85 395.15C278.583 394.183 280.55 393.7 282.75 393.7C285.217 393.7 287.367 394.333 289.2 395.6C291.067 396.833 292.3 398.733 292.9 401.3L290.15 400.55C291.05 398.45 292.483 396.783 294.45 395.55C296.45 394.317 298.733 393.7 301.3 393.7ZM336.691 421.4C334.425 421.4 332.441 420.9 330.741 419.9C329.041 418.9 327.708 417.383 326.741 415.35C325.808 413.283 325.341 410.683 325.341 407.55C325.341 404.383 325.791 401.783 326.691 399.75C327.591 397.717 328.891 396.2 330.591 395.2C332.291 394.2 334.325 393.7 336.691 393.7C339.225 393.7 341.491 394.283 343.491 395.45C345.525 396.583 347.125 398.183 348.291 400.25C349.491 402.317 350.091 404.75 350.091 407.55C350.091 410.383 349.491 412.833 348.291 414.9C347.125 416.967 345.525 418.567 343.491 419.7C341.491 420.833 339.225 421.4 336.691 421.4ZM320.791 430.7V394.1H328.241V399.6L328.091 407.6L328.591 415.55V430.7H320.791ZM335.341 415C336.641 415 337.791 414.7 338.791 414.1C339.825 413.5 340.641 412.65 341.241 411.55C341.875 410.417 342.191 409.083 342.191 407.55C342.191 405.983 341.875 404.65 341.241 403.55C340.641 402.45 339.825 401.6 338.791 401C337.791 400.4 336.641 400.1 335.341 400.1C334.041 400.1 332.875 400.4 331.841 401C330.808 401.6 329.991 402.45 329.391 403.55C328.791 404.65 328.491 405.983 328.491 407.55C328.491 409.083 328.791 410.417 329.391 411.55C329.991 412.65 330.808 413.5 331.841 414.1C332.875 414.7 334.041 415 335.341 415ZM368.163 421.4C365.93 421.4 363.93 420.967 362.163 420.1C360.43 419.233 359.08 417.917 358.113 416.15C357.146 414.35 356.663 412.067 356.663 409.3V394.1H364.463V408.15C364.463 410.383 364.93 412.033 365.863 413.1C366.83 414.133 368.18 414.65 369.913 414.65C371.113 414.65 372.18 414.4 373.113 413.9C374.046 413.367 374.78 412.567 375.313 411.5C375.846 410.4 376.113 409.033 376.113 407.4V394.1H383.913V421H376.513V413.6L377.863 415.75C376.963 417.617 375.63 419.033 373.863 420C372.13 420.933 370.23 421.4 368.163 421.4ZM403.639 421.4C400.472 421.4 398.006 420.6 396.239 419C394.472 417.367 393.589 414.95 393.589 411.75V388.15H401.389V411.65C401.389 412.783 401.689 413.667 402.289 414.3C402.889 414.9 403.706 415.2 404.739 415.2C405.972 415.2 407.022 414.867 407.889 414.2L409.989 419.7C409.189 420.267 408.222 420.7 407.089 421C405.989 421.267 404.839 421.4 403.639 421.4ZM389.439 400.7V394.7H408.089V400.7H389.439ZM428.388 421.4C425.321 421.4 422.621 420.8 420.288 419.6C417.988 418.4 416.204 416.767 414.938 414.7C413.671 412.6 413.038 410.217 413.038 407.55C413.038 404.85 413.654 402.467 414.888 400.4C416.154 398.3 417.871 396.667 420.038 395.5C422.204 394.3 424.654 393.7 427.388 393.7C430.021 393.7 432.388 394.267 434.488 395.4C436.621 396.5 438.304 398.1 439.538 400.2C440.771 402.267 441.388 404.75 441.388 407.65C441.388 407.95 441.371 408.3 441.338 408.7C441.304 409.067 441.271 409.417 441.238 409.75H419.388V405.2H437.137L434.138 406.55C434.138 405.15 433.854 403.933 433.288 402.9C432.721 401.867 431.938 401.067 430.938 400.5C429.938 399.9 428.771 399.6 427.438 399.6C426.104 399.6 424.921 399.9 423.888 400.5C422.888 401.067 422.104 401.883 421.538 402.95C420.971 403.983 420.688 405.217 420.688 406.65V407.85C420.688 409.317 421.004 410.617 421.638 411.75C422.304 412.85 423.221 413.7 424.388 414.3C425.588 414.867 426.988 415.15 428.588 415.15C430.021 415.15 431.271 414.933 432.338 414.5C433.438 414.067 434.438 413.417 435.338 412.55L439.488 417.05C438.254 418.45 436.704 419.533 434.838 420.3C432.971 421.033 430.821 421.4 428.388 421.4ZM448.08 421V394.1H455.53V401.7L454.48 399.5C455.28 397.6 456.564 396.167 458.33 395.2C460.097 394.2 462.247 393.7 464.78 393.7V400.9C464.447 400.867 464.147 400.85 463.88 400.85C463.614 400.817 463.33 400.8 463.03 400.8C460.897 400.8 459.164 401.417 457.83 402.65C456.53 403.85 455.88 405.733 455.88 408.3V421H448.08ZM494.574 421V392.6H483.374V386H513.874V392.6H502.674V421H494.574ZM518.596 421V394.1H526.046V401.7L524.996 399.5C525.796 397.6 527.079 396.167 528.846 395.2C530.613 394.2 532.763 393.7 535.296 393.7V400.9C534.963 400.867 534.663 400.85 534.396 400.85C534.129 400.817 533.846 400.8 533.546 400.8C531.413 400.8 529.679 401.417 528.346 402.65C527.046 403.85 526.396 405.733 526.396 408.3V421H518.596ZM556.176 421V415.75L555.676 414.6V405.2C555.676 403.533 555.16 402.233 554.126 401.3C553.126 400.367 551.576 399.9 549.476 399.9C548.043 399.9 546.626 400.133 545.226 400.6C543.86 401.033 542.693 401.633 541.726 402.4L538.926 396.95C540.393 395.917 542.16 395.117 544.226 394.55C546.293 393.983 548.393 393.7 550.526 393.7C554.626 393.7 557.81 394.667 560.076 396.6C562.343 398.533 563.476 401.55 563.476 405.65V421H556.176ZM547.976 421.4C545.876 421.4 544.076 421.05 542.576 420.35C541.076 419.617 539.926 418.633 539.126 417.4C538.326 416.167 537.926 414.783 537.926 413.25C537.926 411.65 538.31 410.25 539.076 409.05C539.876 407.85 541.126 406.917 542.826 406.25C544.526 405.55 546.743 405.2 549.476 405.2H556.626V409.75H550.326C548.493 409.75 547.226 410.05 546.526 410.65C545.86 411.25 545.526 412 545.526 412.9C545.526 413.9 545.91 414.7 546.676 415.3C547.476 415.867 548.56 416.15 549.926 416.15C551.226 416.15 552.393 415.85 553.426 415.25C554.46 414.617 555.21 413.7 555.676 412.5L556.876 416.1C556.31 417.833 555.276 419.15 553.776 420.05C552.276 420.95 550.343 421.4 547.976 421.4ZM572.036 421V394.1H579.836V421H572.036ZM575.936 390.35C574.502 390.35 573.336 389.933 572.436 389.1C571.536 388.267 571.086 387.233 571.086 386C571.086 384.767 571.536 383.733 572.436 382.9C573.336 382.067 574.502 381.65 575.936 381.65C577.369 381.65 578.536 382.05 579.436 382.85C580.336 383.617 580.786 384.617 580.786 385.85C580.786 387.15 580.336 388.233 579.436 389.1C578.569 389.933 577.402 390.35 575.936 390.35ZM604.925 393.7C607.058 393.7 608.958 394.133 610.625 395C612.325 395.833 613.658 397.133 614.625 398.9C615.591 400.633 616.075 402.867 616.075 405.6V421H608.275V406.8C608.275 404.633 607.791 403.033 606.825 402C605.891 400.967 604.558 400.45 602.825 400.45C601.591 400.45 600.475 400.717 599.475 401.25C598.508 401.75 597.741 402.533 597.175 403.6C596.641 404.667 596.375 406.033 596.375 407.7V421H588.575V394.1H596.025V401.55L594.625 399.3C595.591 397.5 596.975 396.117 598.775 395.15C600.575 394.183 602.625 393.7 604.925 393.7ZM624.645 421V394.1H632.445V421H624.645ZM628.545 390.35C627.112 390.35 625.945 389.933 625.045 389.1C624.145 388.267 623.695 387.233 623.695 386C623.695 384.767 624.145 383.733 625.045 382.9C625.945 382.067 627.112 381.65 628.545 381.65C629.978 381.65 631.145 382.05 632.045 382.85C632.945 383.617 633.395 384.617 633.395 385.85C633.395 387.15 632.945 388.233 632.045 389.1C631.178 389.933 630.012 390.35 628.545 390.35ZM657.534 393.7C659.667 393.7 661.567 394.133 663.234 395C664.934 395.833 666.267 397.133 667.234 398.9C668.201 400.633 668.684 402.867 668.684 405.6V421H660.884V406.8C660.884 404.633 660.401 403.033 659.434 402C658.501 400.967 657.167 400.45 655.434 400.45C654.201 400.45 653.084 400.717 652.084 401.25C651.117 401.75 650.351 402.533 649.784 403.6C649.251 404.667 648.984 406.033 648.984 407.7V421H641.184V394.1H648.634V401.55L647.234 399.3C648.201 397.5 649.584 396.117 651.384 395.15C653.184 394.183 655.234 393.7 657.534 393.7ZM690.1 431.1C687.566 431.1 685.116 430.783 682.75 430.15C680.416 429.55 678.466 428.633 676.9 427.4L680 421.8C681.133 422.733 682.566 423.467 684.3 424C686.066 424.567 687.8 424.85 689.5 424.85C692.266 424.85 694.266 424.233 695.5 423C696.766 421.767 697.4 419.933 697.4 417.5V413.45L697.9 406.7L697.8 399.9V394.1H705.2V416.5C705.2 421.5 703.9 425.183 701.3 427.55C698.7 429.917 694.966 431.1 690.1 431.1ZM688.9 419.7C686.4 419.7 684.133 419.167 682.1 418.1C680.1 417 678.483 415.483 677.25 413.55C676.05 411.583 675.45 409.3 675.45 406.7C675.45 404.067 676.05 401.783 677.25 399.85C678.483 397.883 680.1 396.367 682.1 395.3C684.133 394.233 686.4 393.7 688.9 393.7C691.166 393.7 693.166 394.167 694.9 395.1C696.633 396 697.983 397.417 698.95 399.35C699.916 401.25 700.4 403.7 700.4 406.7C700.4 409.667 699.916 412.117 698.95 414.05C697.983 415.95 696.633 417.367 694.9 418.3C693.166 419.233 691.166 419.7 688.9 419.7ZM690.45 413.3C691.816 413.3 693.033 413.033 694.1 412.5C695.166 411.933 696 411.15 696.6 410.15C697.2 409.15 697.5 408 697.5 406.7C697.5 405.367 697.2 404.217 696.6 403.25C696 402.25 695.166 401.483 694.1 400.95C693.033 400.383 691.816 400.1 690.45 400.1C689.083 400.1 687.866 400.383 686.8 400.95C685.733 401.483 684.883 402.25 684.25 403.25C683.65 404.217 683.35 405.367 683.35 406.7C683.35 408 683.65 409.15 684.25 410.15C684.883 411.15 685.733 411.933 686.8 412.5C687.866 413.033 689.083 413.3 690.45 413.3ZM741.17 421.6C738.603 421.6 736.32 421.183 734.32 420.35C732.32 419.517 730.736 418.383 729.57 416.95C728.403 415.517 727.82 413.867 727.82 412C727.82 410.267 728.203 408.717 728.97 407.35C729.736 405.95 730.953 404.65 732.62 403.45C734.286 402.217 736.403 401.017 738.97 399.85C740.836 398.983 742.303 398.217 743.37 397.55C744.436 396.883 745.186 396.25 745.62 395.65C746.053 395.017 746.27 394.383 746.27 393.75C746.27 392.883 745.97 392.183 745.37 391.65C744.803 391.117 743.953 390.85 742.82 390.85C741.62 390.85 740.686 391.15 740.02 391.75C739.353 392.35 739.02 393.117 739.02 394.05C739.02 394.55 739.12 395.05 739.32 395.55C739.52 396.017 739.903 396.567 740.47 397.2C741.036 397.8 741.836 398.583 742.87 399.55L761.32 416.65L757.07 421.6L736.72 402.7C735.553 401.633 734.62 400.633 733.92 399.7C733.22 398.767 732.703 397.85 732.37 396.95C732.07 396.05 731.92 395.117 731.92 394.15C731.92 392.45 732.37 390.95 733.27 389.65C734.17 388.35 735.436 387.35 737.07 386.65C738.703 385.917 740.62 385.55 742.82 385.55C744.853 385.55 746.603 385.883 748.07 386.55C749.57 387.183 750.736 388.1 751.57 389.3C752.436 390.5 752.87 391.933 752.87 393.6C752.87 395.067 752.503 396.417 751.77 397.65C751.036 398.85 749.886 399.983 748.32 401.05C746.786 402.117 744.77 403.2 742.27 404.3C740.57 405.067 739.22 405.817 738.22 406.55C737.253 407.25 736.553 407.967 736.12 408.7C735.686 409.433 735.47 410.25 735.47 411.15C735.47 411.983 735.72 412.733 736.22 413.4C736.753 414.067 737.486 414.583 738.42 414.95C739.353 415.317 740.453 415.5 741.72 415.5C743.753 415.5 745.62 415.033 747.32 414.1C749.02 413.133 750.453 411.717 751.62 409.85C752.82 407.95 753.67 405.65 754.17 402.95L760.42 404.9C759.72 408.3 758.47 411.25 756.67 413.75C754.87 416.25 752.653 418.183 750.02 419.55C747.386 420.917 744.436 421.6 741.17 421.6ZM795.207 421.6C792.407 421.6 789.723 421.233 787.157 420.5C784.59 419.733 782.523 418.75 780.957 417.55L783.707 411.45C785.207 412.517 786.973 413.4 789.007 414.1C791.073 414.767 793.157 415.1 795.257 415.1C796.857 415.1 798.14 414.95 799.107 414.65C800.107 414.317 800.84 413.867 801.307 413.3C801.773 412.733 802.007 412.083 802.007 411.35C802.007 410.417 801.64 409.683 800.907 409.15C800.173 408.583 799.207 408.133 798.007 407.8C796.807 407.433 795.473 407.1 794.007 406.8C792.573 406.467 791.123 406.067 789.657 405.6C788.223 405.133 786.907 404.533 785.707 403.8C784.507 403.067 783.523 402.1 782.757 400.9C782.023 399.7 781.657 398.167 781.657 396.3C781.657 394.3 782.19 392.483 783.257 390.85C784.357 389.183 785.99 387.867 788.157 386.9C790.357 385.9 793.107 385.4 796.407 385.4C798.607 385.4 800.773 385.667 802.907 386.2C805.04 386.7 806.923 387.467 808.557 388.5L806.057 394.65C804.423 393.717 802.79 393.033 801.157 392.6C799.523 392.133 797.923 391.9 796.357 391.9C794.79 391.9 793.507 392.083 792.507 392.45C791.507 392.817 790.79 393.3 790.357 393.9C789.923 394.467 789.707 395.133 789.707 395.9C789.707 396.8 790.073 397.533 790.807 398.1C791.54 398.633 792.507 399.067 793.707 399.4C794.907 399.733 796.223 400.067 797.657 400.4C799.123 400.733 800.573 401.117 802.007 401.55C803.473 401.983 804.807 402.567 806.007 403.3C807.207 404.033 808.173 405 808.907 406.2C809.673 407.4 810.057 408.917 810.057 410.75C810.057 412.717 809.507 414.517 808.407 416.15C807.307 417.783 805.657 419.1 803.457 420.1C801.29 421.1 798.54 421.6 795.207 421.6ZM829.891 421.4C826.825 421.4 824.125 420.8 821.791 419.6C819.491 418.4 817.708 416.767 816.441 414.7C815.175 412.6 814.541 410.217 814.541 407.55C814.541 404.85 815.158 402.467 816.391 400.4C817.658 398.3 819.375 396.667 821.541 395.5C823.708 394.3 826.158 393.7 828.891 393.7C831.525 393.7 833.891 394.267 835.991 395.4C838.125 396.5 839.808 398.1 841.041 400.2C842.275 402.267 842.891 404.75 842.891 407.65C842.891 407.95 842.875 408.3 842.841 408.7C842.808 409.067 842.775 409.417 842.741 409.75H820.891V405.2H838.641L835.641 406.55C835.641 405.15 835.358 403.933 834.791 402.9C834.225 401.867 833.441 401.067 832.441 400.5C831.441 399.9 830.275 399.6 828.941 399.6C827.608 399.6 826.425 399.9 825.391 400.5C824.391 401.067 823.608 401.883 823.041 402.95C822.475 403.983 822.191 405.217 822.191 406.65V407.85C822.191 409.317 822.508 410.617 823.141 411.75C823.808 412.85 824.725 413.7 825.891 414.3C827.091 414.867 828.491 415.15 830.091 415.15C831.525 415.15 832.775 414.933 833.841 414.5C834.941 414.067 835.941 413.417 836.841 412.55L840.991 417.05C839.758 418.45 838.208 419.533 836.341 420.3C834.475 421.033 832.325 421.4 829.891 421.4ZM849.584 421V394.1H857.034V401.7L855.984 399.5C856.784 397.6 858.068 396.167 859.834 395.2C861.601 394.2 863.751 393.7 866.284 393.7V400.9C865.951 400.867 865.651 400.85 865.384 400.85C865.118 400.817 864.834 400.8 864.534 400.8C862.401 400.8 860.668 401.417 859.334 402.65C858.034 403.85 857.384 405.733 857.384 408.3V421H849.584ZM880.65 421L869.35 394.1H877.4L886.8 417.25H882.8L892.55 394.1H900.05L888.7 421H880.65ZM904.733 421V394.1H912.533V421H904.733ZM908.633 390.35C907.199 390.35 906.033 389.933 905.133 389.1C904.233 388.267 903.783 387.233 903.783 386C903.783 384.767 904.233 383.733 905.133 382.9C906.033 382.067 907.199 381.65 908.633 381.65C910.066 381.65 911.233 382.05 912.133 382.85C913.033 383.617 913.483 384.617 913.483 385.85C913.483 387.15 913.033 388.233 912.133 389.1C911.266 389.933 910.099 390.35 908.633 390.35ZM934.272 421.4C931.372 421.4 928.789 420.817 926.522 419.65C924.255 418.45 922.472 416.8 921.172 414.7C919.905 412.6 919.272 410.217 919.272 407.55C919.272 404.85 919.905 402.467 921.172 400.4C922.472 398.3 924.255 396.667 926.522 395.5C928.789 394.3 931.372 393.7 934.272 393.7C937.105 393.7 939.572 394.3 941.672 395.5C943.772 396.667 945.322 398.35 946.322 400.55L940.272 403.8C939.572 402.533 938.689 401.6 937.622 401C936.589 400.4 935.455 400.1 934.222 400.1C932.889 400.1 931.689 400.4 930.622 401C929.555 401.6 928.705 402.45 928.072 403.55C927.472 404.65 927.172 405.983 927.172 407.55C927.172 409.117 927.472 410.45 928.072 411.55C928.705 412.65 929.555 413.5 930.622 414.1C931.689 414.7 932.889 415 934.222 415C935.455 415 936.589 414.717 937.622 414.15C938.689 413.55 939.572 412.6 940.272 411.3L946.322 414.6C945.322 416.767 943.772 418.45 941.672 419.65C939.572 420.817 937.105 421.4 934.272 421.4ZM965.321 421.4C962.254 421.4 959.554 420.8 957.221 419.6C954.921 418.4 953.138 416.767 951.871 414.7C950.604 412.6 949.971 410.217 949.971 407.55C949.971 404.85 950.588 402.467 951.821 400.4C953.088 398.3 954.804 396.667 956.971 395.5C959.138 394.3 961.588 393.7 964.321 393.7C966.954 393.7 969.321 394.267 971.421 395.4C973.554 396.5 975.238 398.1 976.471 400.2C977.704 402.267 978.321 404.75 978.321 407.65C978.321 407.95 978.304 408.3 978.271 408.7C978.238 409.067 978.204 409.417 978.171 409.75H956.321V405.2H974.071L971.071 406.55C971.071 405.15 970.788 403.933 970.221 402.9C969.654 401.867 968.871 401.067 967.871 400.5C966.871 399.9 965.704 399.6 964.371 399.6C963.038 399.6 961.854 399.9 960.821 400.5C959.821 401.067 959.038 401.883 958.471 402.95C957.904 403.983 957.621 405.217 957.621 406.65V407.85C957.621 409.317 957.938 410.617 958.571 411.75C959.238 412.85 960.154 413.7 961.321 414.3C962.521 414.867 963.921 415.15 965.521 415.15C966.954 415.15 968.204 414.933 969.271 414.5C970.371 414.067 971.371 413.417 972.271 412.55L976.421 417.05C975.188 418.45 973.638 419.533 971.771 420.3C969.904 421.033 967.754 421.4 965.321 421.4ZM994.064 421.4C991.764 421.4 989.547 421.133 987.414 420.6C985.314 420.033 983.647 419.333 982.414 418.5L985.014 412.9C986.247 413.667 987.697 414.3 989.364 414.8C991.064 415.267 992.731 415.5 994.364 415.5C996.164 415.5 997.431 415.283 998.164 414.85C998.931 414.417 999.314 413.817 999.314 413.05C999.314 412.417 999.014 411.95 998.414 411.65C997.847 411.317 997.081 411.067 996.114 410.9C995.147 410.733 994.081 410.567 992.914 410.4C991.781 410.233 990.631 410.017 989.464 409.75C988.297 409.45 987.231 409.017 986.264 408.45C985.297 407.883 984.514 407.117 983.914 406.15C983.347 405.183 983.064 403.933 983.064 402.4C983.064 400.7 983.547 399.2 984.514 397.9C985.514 396.6 986.947 395.583 988.814 394.85C990.681 394.083 992.914 393.7 995.514 393.7C997.347 393.7 999.214 393.9 1001.11 394.3C1003.01 394.7 1004.6 395.283 1005.86 396.05L1003.26 401.6C1001.96 400.833 1000.65 400.317 999.314 400.05C998.014 399.75 996.747 399.6 995.514 399.6C993.781 399.6 992.514 399.833 991.714 400.3C990.914 400.767 990.514 401.367 990.514 402.1C990.514 402.767 990.797 403.267 991.364 403.6C991.964 403.933 992.747 404.2 993.714 404.4C994.681 404.6 995.731 404.783 996.864 404.95C998.031 405.083 999.197 405.3 1000.36 405.6C1001.53 405.9 1002.58 406.333 1003.51 406.9C1004.48 407.433 1005.26 408.183 1005.86 409.15C1006.46 410.083 1006.76 411.317 1006.76 412.85C1006.76 414.517 1006.26 416 1005.26 417.3C1004.26 418.567 1002.81 419.567 1000.91 420.3C999.047 421.033 996.764 421.4 994.064 421.4Z" fill="#2C373A"/>
</g>
<defs>
<filter id="filter0_d_21_55" x="348" y="188" width="524" height="185" filterUnits="userSpaceOnUse" color-interpolation-filters="sRGB">
<feFlood flood-opacity="0" result="BackgroundImageFix"/>
<feColorMatrix in="SourceAlpha" type="matrix" values="0 0 0 0 0 0 0 0 0 0 0 0 0 0 0 0 0 0 127 0" result="hardAlpha"/>
<feOffset dx="10" dy="4"/>
<feGaussianBlur stdDeviation="5"/>
<feComposite in2="hardAlpha" operator="out"/>
<feColorMatrix type="matrix" values="0 0 0 0 0 0 0 0 0 0 0 0 0 0 0 0 0 0 0.3 0"/>
<feBlend mode="normal" in2="BackgroundImageFix" result="effect1_dropShadow_21_55"/>
<feBlend mode="normal" in="SourceGraphic" in2="effect1_dropShadow_21_55" result="shape"/>
</filter>
<filter id="filter1_d_21_55" x="124" y="371.5" width="955.721" height="64.6001" filterUnits="userSpaceOnUse" color-interpolation-filters="sRGB">
<feFlood flood-opacity="0" result="BackgroundImageFix"/>
<feColorMatrix in="SourceAlpha" type="matrix" values="0 0 0 0 0 0 0 0 0 0 0 0 0 0 0 0 0 0 127 0" result="hardAlpha"/>
<feOffset dx="2" dy="1"/>
<feGaussianBlur stdDeviation="2"/>
<feComposite in2="hardAlpha" operator="out"/>
<feColorMatrix type="matrix" values="0 0 0 0 0 0 0 0 0 0 0 0 0 0 0 0 0 0 0.25 0"/>
<feBlend mode="normal" in2="BackgroundImageFix" result="effect1_dropShadow_21_55"/>
<feBlend mode="normal" in="SourceGraphic" in2="effect1_dropShadow_21_55" result="shape"/>
</filter>
</defs>
</svg>
