<svg width="159" height="128" viewBox="0 0 159 128" fill="none" xmlns="http://www.w3.org/2000/svg">
<path d="M0.50863 88.9355V19.9446C0.50863 19.7163 0.579461 19.4936 0.711355 19.3073C0.920895 19.0112 1.26257 18.8371 1.62523 18.8416L20.894 19.0773C21.4397 19.0839 21.968 19.2701 22.3972 19.607C22.9972 20.0779 23.3474 20.7815 23.3478 21.5442C23.359 44.32 23.6837 89.4096 24.1536 96.7807C24.9602 109.434 48.8739 116.014 51.5602 94.5031V39.3333C51.5602 37.2068 54.4423 37.6396 56.4224 38.2898C56.9389 38.4594 57.3759 38.8033 57.7035 39.237L75.1366 62.3197C75.5298 62.8404 75.7426 63.4752 75.7426 64.1277V74.2704C75.7426 77.1632 79.4334 78.3803 81.1541 76.0549L86.7362 68.5115C87.5425 67.4219 87.518 65.9271 86.6765 64.8645L52.1086 21.2122C51.9275 20.9835 51.8289 20.7003 51.8289 20.4086C51.8289 19.6834 52.4246 19.0996 53.1497 19.1143L75.4381 19.5658C76.3135 19.5835 77.1376 19.9828 77.6939 20.659L99.4064 47.0464C100.633 48.5374 102.929 48.498 104.104 46.9657L110.372 38.7908C111.414 37.4325 113.374 37.2277 114.718 38.2869C118.851 41.5421 122.194 43.4438 126.801 44.9516C128.826 45.6142 129.721 48.0499 128.467 49.7718L116.588 66.0803C115.792 67.1729 115.825 68.6628 116.669 69.7189L158.09 121.575C158.355 121.907 158.5 122.32 158.5 122.745C158.5 123.78 157.661 124.619 156.626 124.619H134.422C133.507 124.619 132.642 124.201 132.073 123.485L102.581 86.3721C101.368 84.8453 99.0468 84.8622 97.8661 86.4142C89.4606 97.4625 76.8715 114.293 68.7576 120.063C55.5912 129.427 -0.297354 139.297 0.50863 88.9355Z" fill="#0E6FB6"/>
<ellipse cx="137.77" cy="19.8808" rx="20.7305" ry="19.8808" fill="#FCBE00"/>
</svg>
