<svg width="398" height="143" viewBox="0 0 398 143" fill="none" xmlns="http://www.w3.org/2000/svg">
<path d="M239.509 88.9355V19.9446C239.509 19.7163 239.579 19.4936 239.711 19.3073C239.921 19.0112 240.263 18.8371 240.625 18.8416L259.894 19.0773C260.44 19.0839 260.968 19.2701 261.397 19.607C261.997 20.0779 262.347 20.7815 262.348 21.5442C262.359 44.32 262.684 89.4096 263.154 96.7807C263.96 109.434 287.874 116.014 290.56 94.5031V39.3333C290.56 37.2068 293.442 37.6396 295.422 38.2898C295.939 38.4594 296.376 38.8033 296.703 39.237L314.137 62.3197C314.53 62.8404 314.743 63.4752 314.743 64.1277V74.2704C314.743 77.1632 318.433 78.3803 320.154 76.0549L325.736 68.5115C326.542 67.4219 326.518 65.9271 325.677 64.8645L291.109 21.2122C290.927 20.9835 290.829 20.7003 290.829 20.4086C290.829 19.6834 291.425 19.0996 292.15 19.1143L314.438 19.5658C315.314 19.5835 316.138 19.9828 316.694 20.659L338.406 47.0464C339.633 48.5374 341.929 48.498 343.104 46.9657L349.372 38.7908C350.414 37.4325 352.374 37.2277 353.718 38.2869C357.851 41.5421 361.194 43.4438 365.801 44.9516C367.826 45.6142 368.721 48.0499 367.467 49.7718L355.588 66.0803C354.792 67.1729 354.825 68.6628 355.669 69.7189L397.09 121.575C397.355 121.907 397.5 122.32 397.5 122.745C397.5 123.78 396.661 124.619 395.626 124.619H373.422C372.507 124.619 371.642 124.201 371.073 123.485L341.581 86.3721C340.368 84.8453 338.047 84.8622 336.866 86.4142C328.461 97.4625 315.871 114.293 307.758 120.063C294.591 129.427 238.703 139.297 239.509 88.9355Z" fill="#0E6FB6"/>
<ellipse cx="376.77" cy="19.8808" rx="20.7305" ry="19.8808" fill="#FCBE00"/>
<path d="M7.3 114V44H35.1C39.3667 44 43.1667 44.8667 46.5 46.6C49.9 48.2667 52.5333 50.6667 54.4 53.8C56.3333 56.8667 57.3 60.5667 57.3 64.9V66.2C57.3 70.5333 56.3 74.2667 54.3 77.4C52.3667 80.5333 49.7333 82.9333 46.4 84.6C43.0667 86.2667 39.3 87.1 35.1 87.1H18.1V114H7.3ZM18.1 77.3H34C37.8 77.3 40.8333 76.3 43.1 74.3C45.3667 72.3 46.5 69.5667 46.5 66.1V65.1C46.5 61.5667 45.3667 58.8 43.1 56.8C40.8333 54.8 37.8 53.8 34 53.8H18.1V77.3ZM70.8539 114V64.7H80.9539V70.5H82.5539C83.3539 68.4333 84.6206 66.9333 86.3539 66C88.1539 65 90.3539 64.5 92.9539 64.5H98.8539V73.8H92.5539C89.2206 73.8 86.4872 74.7333 84.3539 76.6C82.2206 78.4 81.1539 81.2 81.1539 85V114H70.8539ZM133.868 115.4C128.935 115.4 124.535 114.4 120.668 112.4C116.868 110.333 113.868 107.4 111.668 103.6C109.468 99.8 108.368 95.3 108.368 90.1V88.6C108.368 83.4 109.468 78.9333 111.668 75.2C113.868 71.4 116.868 68.4667 120.668 66.4C124.535 64.3333 128.935 63.3 133.868 63.3C138.801 63.3 143.201 64.3333 147.068 66.4C150.935 68.4667 153.968 71.4 156.168 75.2C158.368 78.9333 159.468 83.4 159.468 88.6V90.1C159.468 95.3 158.368 99.8 156.168 103.6C153.968 107.4 150.935 110.333 147.068 112.4C143.201 114.4 138.801 115.4 133.868 115.4ZM133.868 106.2C138.401 106.2 142.068 104.767 144.868 101.9C147.735 98.9667 149.168 94.9333 149.168 89.8V88.9C149.168 83.7667 147.768 79.7667 144.968 76.9C142.168 73.9667 138.468 72.5 133.868 72.5C129.401 72.5 125.735 73.9667 122.868 76.9C120.068 79.7667 118.668 83.7667 118.668 88.9V89.8C118.668 94.9333 120.068 98.9667 122.868 101.9C125.735 104.767 129.401 106.2 133.868 106.2ZM195.691 115.4C191.625 115.4 187.858 114.4 184.391 112.4C180.925 110.4 178.125 107.533 175.991 103.8C173.925 100 172.891 95.4333 172.891 90.1V88.6C172.891 83.3333 173.925 78.8 175.991 75C178.058 71.2 180.825 68.3 184.291 66.3C187.758 64.3 191.558 63.3 195.691 63.3C198.891 63.3 201.558 63.7 203.691 64.5C205.891 65.3 207.691 66.3333 209.091 67.6C210.491 68.8 211.558 70.0667 212.291 71.4H213.891V44H224.191V114H214.091V107H212.491C211.225 109.133 209.291 111.067 206.691 112.8C204.158 114.533 200.491 115.4 195.691 115.4ZM198.591 106.4C203.058 106.4 206.725 104.967 209.591 102.1C212.525 99.2333 213.991 95.1333 213.991 89.8V88.9C213.991 83.6333 212.558 79.5667 209.691 76.7C206.825 73.8333 203.125 72.4 198.591 72.4C194.191 72.4 190.525 73.8333 187.591 76.7C184.725 79.5667 183.291 83.6333 183.291 88.9V89.8C183.291 95.1333 184.725 99.2333 187.591 102.1C190.525 104.967 194.191 106.4 198.591 106.4Z" fill="#080808"/>
</svg>
